<mxfile host="app.diagrams.net" modified="2023-09-14T08:39:04.525Z" agent="Mozilla/5.0 (Windows NT 10.0; Win64; x64) AppleWebKit/537.36 (KHTML, like Gecko) Chrome/114.0.0.0 YaBrowser/23.7.5.704 Yowser/2.5 Safari/537.36" etag="KxHpp0bnIyS9za2mUaFT" version="21.7.5" type="device">
  <diagram id="R2lEEEUBdFMjLlhIrx00" name="Page-1">
    <mxGraphModel dx="635" dy="384" grid="1" gridSize="10" guides="1" tooltips="1" connect="1" arrows="1" fold="1" page="1" pageScale="1" pageWidth="583" pageHeight="413" math="0" shadow="0" extFonts="Permanent Marker^https://fonts.googleapis.com/css?family=Permanent+Marker">
      <root>
        <mxCell id="0" />
        <mxCell id="1" parent="0" />
        <mxCell id="zvejhQ9Nzf3fhYUcfmvr-3" value="" style="edgeStyle=orthogonalEdgeStyle;rounded=0;orthogonalLoop=1;jettySize=auto;html=1;endArrow=none;endFill=0;" parent="1" source="zvejhQ9Nzf3fhYUcfmvr-1" target="zvejhQ9Nzf3fhYUcfmvr-2" edge="1">
          <mxGeometry relative="1" as="geometry" />
        </mxCell>
        <mxCell id="zvejhQ9Nzf3fhYUcfmvr-13" value="" style="edgeStyle=orthogonalEdgeStyle;rounded=0;orthogonalLoop=1;jettySize=auto;html=1;endArrow=none;endFill=0;" parent="1" source="zvejhQ9Nzf3fhYUcfmvr-1" target="zvejhQ9Nzf3fhYUcfmvr-12" edge="1">
          <mxGeometry relative="1" as="geometry" />
        </mxCell>
        <mxCell id="zvejhQ9Nzf3fhYUcfmvr-18" style="rounded=0;orthogonalLoop=1;jettySize=auto;html=1;endArrow=none;endFill=0;" parent="1" source="zvejhQ9Nzf3fhYUcfmvr-1" target="zvejhQ9Nzf3fhYUcfmvr-4" edge="1">
          <mxGeometry relative="1" as="geometry" />
        </mxCell>
        <mxCell id="ciamA_rghtSVD41x1u0I-1" style="rounded=0;orthogonalLoop=1;jettySize=auto;html=1;exitX=1;exitY=0.75;exitDx=0;exitDy=0;endArrow=none;endFill=0;" edge="1" parent="1" source="zvejhQ9Nzf3fhYUcfmvr-1" target="zvejhQ9Nzf3fhYUcfmvr-17">
          <mxGeometry relative="1" as="geometry" />
        </mxCell>
        <mxCell id="zvejhQ9Nzf3fhYUcfmvr-1" value="Младший преподаватель" style="rounded=0;whiteSpace=wrap;html=1;" parent="1" vertex="1">
          <mxGeometry x="30" y="20" width="120" height="60" as="geometry" />
        </mxCell>
        <mxCell id="zvejhQ9Nzf3fhYUcfmvr-5" value="" style="rounded=0;orthogonalLoop=1;jettySize=auto;html=1;endArrow=none;endFill=0;" parent="1" source="zvejhQ9Nzf3fhYUcfmvr-2" target="zvejhQ9Nzf3fhYUcfmvr-4" edge="1">
          <mxGeometry relative="1" as="geometry" />
        </mxCell>
        <mxCell id="zvejhQ9Nzf3fhYUcfmvr-7" value="" style="rounded=0;orthogonalLoop=1;jettySize=auto;html=1;endArrow=none;endFill=0;" parent="1" source="zvejhQ9Nzf3fhYUcfmvr-2" target="zvejhQ9Nzf3fhYUcfmvr-6" edge="1">
          <mxGeometry relative="1" as="geometry" />
        </mxCell>
        <mxCell id="zvejhQ9Nzf3fhYUcfmvr-10" style="rounded=0;orthogonalLoop=1;jettySize=auto;html=1;endArrow=none;endFill=0;" parent="1" source="zvejhQ9Nzf3fhYUcfmvr-2" target="zvejhQ9Nzf3fhYUcfmvr-9" edge="1">
          <mxGeometry relative="1" as="geometry" />
        </mxCell>
        <mxCell id="zvejhQ9Nzf3fhYUcfmvr-2" value="Ученик" style="whiteSpace=wrap;html=1;rounded=0;" parent="1" vertex="1">
          <mxGeometry x="30" y="190" width="120" height="60" as="geometry" />
        </mxCell>
        <mxCell id="zvejhQ9Nzf3fhYUcfmvr-4" value="Урок" style="whiteSpace=wrap;html=1;rounded=0;" parent="1" vertex="1">
          <mxGeometry x="240" y="220" width="120" height="60" as="geometry" />
        </mxCell>
        <mxCell id="zvejhQ9Nzf3fhYUcfmvr-6" value="Оценка за вебинар" style="whiteSpace=wrap;html=1;rounded=0;" parent="1" vertex="1">
          <mxGeometry x="30" y="300" width="120" height="60" as="geometry" />
        </mxCell>
        <mxCell id="zvejhQ9Nzf3fhYUcfmvr-9" value="Результат домашней работы" style="whiteSpace=wrap;html=1;rounded=0;" parent="1" vertex="1">
          <mxGeometry x="224" y="290" width="120" height="60" as="geometry" />
        </mxCell>
        <mxCell id="zvejhQ9Nzf3fhYUcfmvr-15" value="" style="edgeStyle=orthogonalEdgeStyle;rounded=0;orthogonalLoop=1;jettySize=auto;html=1;endArrow=none;endFill=0;" parent="1" source="zvejhQ9Nzf3fhYUcfmvr-12" target="zvejhQ9Nzf3fhYUcfmvr-14" edge="1">
          <mxGeometry relative="1" as="geometry" />
        </mxCell>
        <mxCell id="zvejhQ9Nzf3fhYUcfmvr-19" style="edgeStyle=orthogonalEdgeStyle;rounded=0;orthogonalLoop=1;jettySize=auto;html=1;endArrow=none;endFill=0;" parent="1" source="zvejhQ9Nzf3fhYUcfmvr-12" target="zvejhQ9Nzf3fhYUcfmvr-17" edge="1">
          <mxGeometry relative="1" as="geometry" />
        </mxCell>
        <mxCell id="zvejhQ9Nzf3fhYUcfmvr-12" value="Старший преподаватель" style="rounded=0;whiteSpace=wrap;html=1;" parent="1" vertex="1">
          <mxGeometry x="240" y="20" width="120" height="60" as="geometry" />
        </mxCell>
        <mxCell id="zvejhQ9Nzf3fhYUcfmvr-21" style="edgeStyle=orthogonalEdgeStyle;rounded=0;orthogonalLoop=1;jettySize=auto;html=1;endArrow=none;endFill=0;" parent="1" source="zvejhQ9Nzf3fhYUcfmvr-14" target="zvejhQ9Nzf3fhYUcfmvr-6" edge="1">
          <mxGeometry relative="1" as="geometry">
            <Array as="points">
              <mxPoint x="460" y="240" />
              <mxPoint x="520" y="240" />
              <mxPoint x="520" y="370" />
              <mxPoint x="90" y="370" />
            </Array>
          </mxGeometry>
        </mxCell>
        <mxCell id="zvejhQ9Nzf3fhYUcfmvr-14" value="Вебинар" style="whiteSpace=wrap;html=1;rounded=0;" parent="1" vertex="1">
          <mxGeometry x="400" y="120" width="120" height="60" as="geometry" />
        </mxCell>
        <mxCell id="zvejhQ9Nzf3fhYUcfmvr-23" style="rounded=0;orthogonalLoop=1;jettySize=auto;html=1;exitX=1;exitY=0.5;exitDx=0;exitDy=0;endArrow=none;endFill=0;" parent="1" source="zvejhQ9Nzf3fhYUcfmvr-17" target="zvejhQ9Nzf3fhYUcfmvr-22" edge="1">
          <mxGeometry relative="1" as="geometry" />
        </mxCell>
        <mxCell id="zvejhQ9Nzf3fhYUcfmvr-17" value="Предмет" style="rounded=0;whiteSpace=wrap;html=1;" parent="1" vertex="1">
          <mxGeometry x="240" y="120" width="120" height="60" as="geometry" />
        </mxCell>
        <mxCell id="zvejhQ9Nzf3fhYUcfmvr-24" style="rounded=0;orthogonalLoop=1;jettySize=auto;html=1;endArrow=none;endFill=0;" parent="1" source="zvejhQ9Nzf3fhYUcfmvr-22" target="zvejhQ9Nzf3fhYUcfmvr-9" edge="1">
          <mxGeometry relative="1" as="geometry" />
        </mxCell>
        <mxCell id="zvejhQ9Nzf3fhYUcfmvr-22" value="Домашняя работа" style="whiteSpace=wrap;html=1;rounded=0;" parent="1" vertex="1">
          <mxGeometry x="390" y="290" width="120" height="60" as="geometry" />
        </mxCell>
        <mxCell id="zvejhQ9Nzf3fhYUcfmvr-25" value="ꝏ" style="text;whiteSpace=wrap;fontSize=21;strokeWidth=2;" parent="1" vertex="1">
          <mxGeometry x="60" y="70" width="20" height="10" as="geometry" />
        </mxCell>
        <mxCell id="zvejhQ9Nzf3fhYUcfmvr-28" value="ꝏ" style="text;whiteSpace=wrap;fontSize=21;strokeWidth=2;" parent="1" vertex="1">
          <mxGeometry x="60" y="160" width="20" height="10" as="geometry" />
        </mxCell>
        <mxCell id="zvejhQ9Nzf3fhYUcfmvr-29" value="1" style="text;whiteSpace=wrap;fontSize=21;strokeWidth=2;" parent="1" vertex="1">
          <mxGeometry x="140" y="70" width="20" height="10" as="geometry" />
        </mxCell>
        <mxCell id="zvejhQ9Nzf3fhYUcfmvr-30" value="ꝏ" style="text;whiteSpace=wrap;fontSize=21;strokeWidth=2;" parent="1" vertex="1">
          <mxGeometry x="224" y="190" width="20" height="10" as="geometry" />
        </mxCell>
        <mxCell id="zvejhQ9Nzf3fhYUcfmvr-31" value="ꝏ" style="text;whiteSpace=wrap;fontSize=21;strokeWidth=2;" parent="1" vertex="1">
          <mxGeometry x="150" y="20" width="20" height="10" as="geometry" />
        </mxCell>
        <mxCell id="zvejhQ9Nzf3fhYUcfmvr-32" value="1" style="text;whiteSpace=wrap;fontSize=21;strokeWidth=2;" parent="1" vertex="1">
          <mxGeometry x="220" y="20" width="20" height="10" as="geometry" />
        </mxCell>
        <mxCell id="zvejhQ9Nzf3fhYUcfmvr-33" value="1" style="text;whiteSpace=wrap;fontSize=21;strokeWidth=2;" parent="1" vertex="1">
          <mxGeometry x="360" y="20" width="20" height="10" as="geometry" />
        </mxCell>
        <mxCell id="zvejhQ9Nzf3fhYUcfmvr-35" value="ꝏ" style="text;whiteSpace=wrap;fontSize=21;strokeWidth=2;" parent="1" vertex="1">
          <mxGeometry x="460" y="90" width="20" height="10" as="geometry" />
        </mxCell>
        <mxCell id="zvejhQ9Nzf3fhYUcfmvr-36" value="ꝏ" style="text;whiteSpace=wrap;fontSize=21;strokeWidth=2;" parent="1" vertex="1">
          <mxGeometry x="60" y="350" width="20" height="10" as="geometry" />
        </mxCell>
        <mxCell id="zvejhQ9Nzf3fhYUcfmvr-37" value="1" style="text;whiteSpace=wrap;fontSize=21;strokeWidth=2;" parent="1" vertex="1">
          <mxGeometry x="460" y="180" width="20" height="10" as="geometry" />
        </mxCell>
        <mxCell id="zvejhQ9Nzf3fhYUcfmvr-38" value="ꝏ" style="text;whiteSpace=wrap;fontSize=21;strokeWidth=2;" parent="1" vertex="1">
          <mxGeometry x="60" y="270" width="20" height="10" as="geometry" />
        </mxCell>
        <mxCell id="zvejhQ9Nzf3fhYUcfmvr-39" value="1" style="text;whiteSpace=wrap;fontSize=21;strokeWidth=2;" parent="1" vertex="1">
          <mxGeometry x="70" y="240" width="20" height="10" as="geometry" />
        </mxCell>
        <mxCell id="zvejhQ9Nzf3fhYUcfmvr-40" value="ꝏ" style="text;whiteSpace=wrap;fontSize=21;strokeWidth=2;" parent="1" vertex="1">
          <mxGeometry x="200" y="280" width="20" height="10" as="geometry" />
        </mxCell>
        <mxCell id="zvejhQ9Nzf3fhYUcfmvr-41" value="1" style="text;whiteSpace=wrap;fontSize=21;strokeWidth=2;" parent="1" vertex="1">
          <mxGeometry x="140" y="245" width="20" height="10" as="geometry" />
        </mxCell>
        <mxCell id="zvejhQ9Nzf3fhYUcfmvr-42" value="ꝏ" style="text;whiteSpace=wrap;fontSize=21;strokeWidth=2;" parent="1" vertex="1">
          <mxGeometry x="210" y="230" width="20" height="10" as="geometry" />
        </mxCell>
        <mxCell id="zvejhQ9Nzf3fhYUcfmvr-44" value="1" style="text;whiteSpace=wrap;fontSize=21;strokeWidth=2;" parent="1" vertex="1">
          <mxGeometry x="150" y="190" width="20" height="10" as="geometry" />
        </mxCell>
        <mxCell id="zvejhQ9Nzf3fhYUcfmvr-45" value="1" style="text;whiteSpace=wrap;fontSize=21;strokeWidth=2;" parent="1" vertex="1">
          <mxGeometry x="370" y="290" width="20" height="10" as="geometry" />
        </mxCell>
        <mxCell id="zvejhQ9Nzf3fhYUcfmvr-46" value="ꝏ" style="text;whiteSpace=wrap;fontSize=21;strokeWidth=2;" parent="1" vertex="1">
          <mxGeometry x="344" y="290" width="20" height="10" as="geometry" />
        </mxCell>
        <mxCell id="zvejhQ9Nzf3fhYUcfmvr-47" value="1" style="text;whiteSpace=wrap;fontSize=21;strokeWidth=2;" parent="1" vertex="1">
          <mxGeometry x="360" y="130" width="20" height="10" as="geometry" />
        </mxCell>
        <mxCell id="zvejhQ9Nzf3fhYUcfmvr-48" value="ꝏ" style="text;whiteSpace=wrap;fontSize=21;strokeWidth=2;" parent="1" vertex="1">
          <mxGeometry x="430" y="260" width="20" height="10" as="geometry" />
        </mxCell>
        <mxCell id="zvejhQ9Nzf3fhYUcfmvr-49" value="1" style="text;whiteSpace=wrap;fontSize=21;strokeWidth=2;" parent="1" vertex="1">
          <mxGeometry x="284" y="90" width="20" height="10" as="geometry" />
        </mxCell>
        <mxCell id="zvejhQ9Nzf3fhYUcfmvr-50" value="ꝏ" style="text;whiteSpace=wrap;fontSize=21;strokeWidth=2;" parent="1" vertex="1">
          <mxGeometry x="274" y="70" width="20" height="10" as="geometry" />
        </mxCell>
        <mxCell id="ciamA_rghtSVD41x1u0I-3" value="1" style="text;whiteSpace=wrap;fontSize=21;strokeWidth=2;" vertex="1" parent="1">
          <mxGeometry x="240" y="90" width="20" height="10" as="geometry" />
        </mxCell>
        <mxCell id="ciamA_rghtSVD41x1u0I-4" value="ꝏ" style="text;whiteSpace=wrap;fontSize=21;strokeWidth=2;" vertex="1" parent="1">
          <mxGeometry x="160" y="45" width="20" height="10" as="geometry" />
        </mxCell>
      </root>
    </mxGraphModel>
  </diagram>
</mxfile>
